      <svg viewBox="0 0 35 44" fill="none" xmlns="http://www.w3.org/2000/svg">
      <path d="M34.2997 42.0518C34.2734 41.9606 33.6147 39.7575 31.9887 36.8442C30.4907 34.1625 27.841 30.3261 23.7309 27.2912L22.0635 29.593C25.7408 32.3089 28.1308 35.7616 29.4896 38.1774C30.1031 39.2713 30.5698 40.2513 30.901 41.0452H23.1927C21.3973 36.7188 17.562 33.3116 15.172 31.4998C17.6486 30.1134 20.0047 28.2484 22.2066 25.9351C24.4611 23.5687 26.5575 20.7237 28.4432 17.4837C31.6349 11.9912 33.0991 7.29259 33.1631 7.09507L33.7314 5.24525H20.5091L20.1967 6.23663C18.5481 11.429 15.4091 15.3946 12.3378 18.2396C11.3743 19.1322 9.16868 20.8415 8.99931 20.963C6.59422 22.6951 4.35098 23.884 2.84169 24.5867V2.95861H9.51495V18.3118C10.422 17.6356 11.3555 16.8532 12.3228 15.9643V0.125H0V28.7422L1.88944 28.0774C2.05505 28.0205 6.0033 26.6037 10.5613 23.337C13.2449 21.4112 15.5898 19.2424 17.5281 16.876C19.7375 14.1829 21.4237 11.2163 22.5491 8.10924H29.8095C29.1169 9.90589 27.8674 12.8496 26.008 16.0441C23.2416 20.7997 18.5406 27.0747 11.8335 29.9842L9.30794 31.0782L11.6641 32.5102C11.7356 32.5558 18.9207 36.9771 20.8779 42.9064L21.1979 43.875H34.838L34.2997 42.048V42.0518Z" fill="url(#paint0_radial_715_28556)"/>
      <defs>
      <radialGradient id="paint0_radial_715_28556" cx="0" cy="0" r="1" gradientUnits="userSpaceOnUse" gradientTransform="translate(-3.04563e-06 45.8636) rotate(-52.5509) scale(70.8891 56.8834)">
      <stop offset="0.21875" stopColor="#D900FB"/>
      <stop offset="0.479167" stopColor="#5B67F0"/>
      <stop offset="0.791667" stopColor="#01B2E8"/>
      </radialGradient>
      </defs>
      </svg>